<svg xmlns="http://www.w3.org/2000/svg" width="20" height="22" viewBox="0 0 20 22" fill="none">
  <path d="M9.50831 10.2667C10.5209 10.2667 11.5107 9.96565 12.3526 9.40159C13.1946 8.83753 13.8508 8.03581 14.2382 7.09781C14.6257 6.15981 14.7271 5.12767 14.5296 4.13189C14.332 3.13612 13.8444 2.22144 13.1284 1.50353C12.4125 0.785615 11.5002 0.29671 10.5071 0.0986383C9.51399 -0.0994334 8.4846 0.0022242 7.54911 0.390756C6.61362 0.779287 5.81404 1.43724 5.25149 2.28142C4.68893 3.1256 4.38867 4.11808 4.38867 5.13336C4.38867 6.49481 4.92806 7.8005 5.88818 8.76319C6.8483 9.72588 8.1505 10.2667 9.50831 10.2667ZM9.50831 1.46668C10.2316 1.46668 10.9386 1.68172 11.54 2.08462C12.1413 2.48752 12.6101 3.06018 12.8868 3.73018C13.1636 4.40018 13.236 5.13743 13.0949 5.84869C12.9538 6.55996 12.6055 7.2133 12.0941 7.7261C11.5827 8.23889 10.9311 8.58811 10.2217 8.72959C9.51237 8.87107 8.77709 8.79846 8.10888 8.52093C7.44067 8.24341 6.86955 7.77344 6.46772 7.17046C6.0659 6.56748 5.85143 5.85856 5.85143 5.13336C5.85143 4.16089 6.2367 3.22826 6.9225 2.54062C7.6083 1.85299 8.53845 1.46668 9.50831 1.46668Z" fill="black"/>
  <path d="M18.6283 15.6713C17.4554 14.4283 16.0419 13.4382 14.4744 12.7616C12.9069 12.085 11.2182 11.736 9.51161 11.736C7.805 11.736 6.11631 12.085 4.5488 12.7616C2.98128 13.4382 1.56786 14.4283 0.394947 15.6713C0.140655 15.9437 -0.000575533 16.3029 1.76285e-06 16.676V20.5333C1.76285e-06 20.9223 0.154114 21.2954 0.428435 21.5704C0.702756 21.8455 1.07482 22 1.46276 22H17.5531C17.9411 22 18.3132 21.8455 18.5875 21.5704C18.8618 21.2954 19.0159 20.9223 19.0159 20.5333V16.676C19.0185 16.3039 18.8799 15.9448 18.6283 15.6713ZM17.5531 20.5333H1.46276V16.6687C2.4993 15.5743 3.74708 14.7028 5.13017 14.1073C6.51326 13.5118 8.00274 13.2047 9.50795 13.2047C11.0132 13.2047 12.5026 13.5118 13.8857 14.1073C15.2688 14.7028 16.5166 15.5743 17.5531 16.6687V20.5333Z" fill="black"/>
</svg>