<svg xmlns="http://www.w3.org/2000/svg" width="22" height="22" viewBox="0 0 22 22" fill="none">
  <path d="M16.3251 9.07403L16.2251 9.06721V8.97404H11.717V6.98908C11.717 5.99907 12.0151 5.23501 12.592 4.7064L12.5921 4.70633C13.0409 4.29413 13.5785 4.11047 14.0144 4.03111C14.4504 3.95177 14.7781 3.97794 14.799 3.97993L14.7989 3.98039L14.8086 3.98038L16.7967 3.9765L16.8949 3.97631L16.8965 3.87803L16.9339 1.42985L16.9353 1.34101L16.8472 1.3292C16.3598 1.26386 15.5202 1.19259 14.1777 1.19259C12.5908 1.19259 11.2768 1.73242 10.3597 2.6971C9.44319 3.66126 8.93184 5.04068 8.93184 6.7047V8.97403H5.15404H5.05404V9.07403V11.6592V11.7592H5.15404H8.93184V20.7074V20.8074H9.03184H11.617H11.717V20.7074V11.7592H15.871H15.9582L15.97 11.6728L16.3124 9.17404H16.3251V9.07404V9.07403ZM13.3236 5.51731L13.3235 5.51745C12.9765 5.84191 12.8096 6.3441 12.8096 6.98907V7.78143V7.88143H12.9096H17.5918L16.9096 12.8518H12.9096H12.8096V12.9518V21.9H7.83924V12.9518V12.8518H7.73924H3.96145V7.88143H7.73924H7.83924V7.78143V6.7047C7.83924 4.72162 8.47884 3.0716 9.58659 1.918C10.694 0.764758 12.2765 0.1 14.1777 0.1C16.3351 0.1 17.3076 0.283188 17.6179 0.359498C17.6179 0.3595 17.6179 0.359501 17.6179 0.359502L18.0396 0.463279L17.9712 5.06913L14.7552 5.07039C14.7542 5.07034 14.753 5.07028 14.7517 5.07022C14.7059 5.06794 14.4918 5.05732 14.2246 5.103C13.9454 5.15075 13.5981 5.26162 13.3236 5.51731Z" fill="black" stroke="white" stroke-width="0.2"/>
</svg>