<svg xmlns="http://www.w3.org/2000/svg" width="21" height="21" viewBox="0 0 21 21" fill="none">
  <path d="M4.06979 18.2553L4.06925 18.2551C3.60286 18.0707 3.17926 17.7925 2.82463 17.4379C2.47 17.0833 2.19188 16.6597 2.00746 16.1933C1.72476 15.4787 1.62382 14.3121 1.58836 13.1756C1.56271 12.3536 1.57117 11.5188 1.57799 10.8443C1.58068 10.5785 1.58312 10.3376 1.58312 10.1321C1.58312 9.92618 1.58069 9.68434 1.57801 9.41735C1.57121 8.74199 1.5628 7.90568 1.58804 7.08259C1.62298 5.94374 1.72262 4.7754 2.00228 4.06463L2.00243 4.06424C2.18686 3.59785 2.46498 3.17425 2.81961 2.81962C3.17424 2.46499 3.59783 2.18687 4.0642 2.00245L4.06979 18.2553ZM4.06979 18.2553C4.7817 18.5349 5.94862 18.6345 7.08602 18.6695C7.90787 18.6947 8.74279 18.6863 9.41746 18.6795C9.68431 18.6768 9.9261 18.6744 10.1321 18.6744C10.3375 18.6744 10.5785 18.6768 10.8443 18.6795C11.5188 18.6864 12.3536 18.6948 13.1756 18.6692C14.3121 18.6337 15.4787 18.5328 16.1933 18.2501M4.06979 18.2553L16.1865 2.0024M16.1865 2.0024L16.1866 2.00243C16.653 2.18686 17.0766 2.46498 17.4312 2.81962C17.7858 3.17425 18.064 3.59785 18.2484 4.06424M16.1865 2.0024C15.4761 1.72183 14.3095 1.6209 13.1721 1.58492C12.3436 1.55871 11.5018 1.56681 10.8242 1.57333C10.5636 1.57584 10.3274 1.57811 10.1254 1.57811C9.91996 1.57811 9.67901 1.57567 9.41316 1.57298M16.1865 2.0024L9.41316 1.57298M18.2484 4.06424L18.0159 4.15617L18.2484 4.0642C18.2484 4.06421 18.2484 4.06423 18.2484 4.06424ZM18.2484 4.06424C18.5311 4.77882 18.632 5.94543 18.6675 7.08194C18.6931 7.90392 18.6847 8.73868 18.6778 9.41317C18.6751 9.67902 18.6727 9.91996 18.6727 10.1254C18.6727 10.3403 18.6756 10.5944 18.6788 10.8755C18.6864 11.5437 18.6958 12.3642 18.6721 13.1711C18.6387 14.3082 18.5396 15.4759 18.2549 16.1887C18.0705 16.6549 17.7924 17.0784 17.4379 17.4329C17.0833 17.7875 16.6597 18.0657 16.1933 18.2501M16.1933 18.2501L16.1013 18.0176M16.1933 18.2501C16.1933 18.2501 16.1933 18.2501 16.1933 18.2501L16.1013 18.0176M16.1013 18.0176C14.955 18.4711 12.467 18.4459 10.853 18.4296C10.5853 18.4269 10.3416 18.4244 10.1321 18.4244C9.92206 18.4244 9.67758 18.4269 9.40888 18.4296C7.79349 18.4458 5.3028 18.4709 4.16118 18.0226L18.4279 9.40455C18.4252 9.67225 18.4227 9.91591 18.4227 10.1254C18.4227 10.3449 18.4256 10.6021 18.4289 10.8852C18.4473 12.5014 18.4754 14.9633 18.0226 16.0963C17.8507 16.5309 17.5916 16.9257 17.2611 17.2561C16.9307 17.5866 16.5359 17.8457 16.1013 18.0176ZM9.41316 1.57298C8.73868 1.56616 7.90392 1.5577 7.08193 1.58335M9.41316 1.57298L7.08193 1.58335M7.08193 1.58335C5.94543 1.61881 4.77881 1.71974 4.06424 2.00243L7.08193 1.58335ZM10.1313 5.18386L10.1317 5.18386C10.7809 5.18281 11.4241 5.30993 12.0241 5.55791C12.6242 5.8059 13.1694 6.16989 13.6285 6.629C14.0876 7.08811 14.4516 7.63333 14.6996 8.23339C14.9476 8.83346 15.0747 9.47656 15.0736 10.1258V10.1263C15.0736 11.1038 14.7838 12.0593 14.2407 12.8721C13.6976 13.6849 12.9257 14.3184 12.0226 14.6924C11.1195 15.0665 10.1258 15.1644 9.16705 14.9737C8.20831 14.783 7.32767 14.3123 6.63646 13.6211C5.94526 12.9298 5.47454 12.0492 5.28383 11.0905C5.09313 10.1317 5.19101 9.13799 5.56509 8.23488C5.93916 7.33178 6.57264 6.55988 7.38541 6.0168C8.19818 5.47372 9.15375 5.18386 10.1313 5.18386ZM10.1313 13.7518L10.1318 13.7518C11.0926 13.7499 12.0135 13.3674 12.693 12.688C13.3724 12.0085 13.7549 11.0876 13.7568 10.1267V10.1263C13.7568 9.40918 13.5442 8.70822 13.1458 8.112C12.7474 7.51578 12.1812 7.05109 11.5187 6.77668C10.8562 6.50227 10.1272 6.43047 9.42395 6.57036C8.72066 6.71025 8.07465 7.05555 7.5676 7.5626C7.06056 8.06964 6.71526 8.71566 6.57537 9.41894C6.43547 10.1222 6.50727 10.8512 6.78168 11.5137C7.05609 12.1762 7.52079 12.7424 8.11701 13.1408C8.71323 13.5392 9.41419 13.7518 10.1313 13.7518ZM16.497 4.72099V4.72169C16.497 4.9118 16.4407 5.09764 16.335 5.25571C16.2294 5.41379 16.0793 5.53699 15.9037 5.60974C15.728 5.68249 15.5348 5.70153 15.3483 5.66444C15.1618 5.62735 14.9906 5.5358 14.8561 5.40137C14.7217 5.26694 14.6302 5.09567 14.5931 4.90921C14.556 4.72275 14.575 4.52948 14.6478 4.35384C14.7205 4.1782 14.8437 4.02808 15.0018 3.92246C15.1599 3.81684 15.3457 3.76046 15.5358 3.76046L15.5365 3.76046C15.6628 3.76011 15.7878 3.78472 15.9045 3.83286C16.0212 3.88101 16.1272 3.95175 16.2165 4.04102C16.3058 4.13028 16.3765 4.23631 16.4246 4.353C16.4728 4.4697 16.4974 4.59476 16.497 4.72099ZM19.9361 5.94514L19.9359 5.95466L19.9365 5.96417C20.0278 7.62745 20.0278 12.6251 19.9331 14.2853L19.9326 14.2947L19.9328 14.3042C19.9608 15.8102 19.4 17.2676 18.3701 18.3664C17.2737 19.3995 15.8153 19.9607 14.309 19.9286L14.2993 19.9284L14.2895 19.929C12.6283 20.0237 7.62585 20.0237 5.96468 19.929L5.95531 19.9284L5.94593 19.9286C4.44 19.9559 2.98284 19.3952 1.88357 18.3659C0.850456 17.2695 0.289346 15.8111 0.321364 14.3049L0.321572 14.2951L0.321015 14.2853C0.226328 12.6241 0.226328 7.62168 0.321015 5.9605L0.321558 5.95099L0.321374 5.94146C0.292366 4.43493 0.854415 2.97703 1.88697 1.87989C2.98588 0.850762 4.44337 0.291449 5.94882 0.321371L5.95843 0.321562L5.96802 0.321015C7.62919 0.226328 12.6317 0.226328 14.2928 0.321015L14.3023 0.321553L14.3117 0.321377C15.8177 0.293383 17.2751 0.854109 18.3739 1.88409C19.407 2.98041 19.9682 4.43886 19.9361 5.94514Z" fill="black" stroke="white" stroke-width="0.5"/>
</svg>