<svg xmlns="http://www.w3.org/2000/svg" width="25" height="25" viewBox="0 0 25 25" fill="none">
  <g clip-path="url(#clip0_1_233)">
    <path d="M3.97923 4.92453L3.98023 4.92434C4.02207 4.91674 6.71681 4.4375 12.5078 4.4375C18.2695 4.4375 20.9634 4.91436 21.0183 4.92453C21.0185 4.92455 21.0186 4.92458 21.0187 4.92459L20.9726 5.17031L3.97923 4.92453ZM3.97923 4.92453C3.62987 4.98951 3.25419 5.19203 2.93976 5.44004M3.97923 4.92453L2.93976 5.44004M2.93976 5.44004C2.62534 5.68804 2.34079 6.00628 2.19646 6.33137M2.93976 5.44004L2.19646 6.33137M2.19646 6.33137L2.19652 6.33139M2.19646 6.33137L2.19652 6.33139M2.19652 6.33139C2.13772 6.46647 1.31401 8.5134 1.31401 12.5C1.31401 16.5171 2.15062 18.5634 2.19801 18.6717L2.19799 18.6717C2.34162 18.9954 2.62596 19.3129 2.94018 19.5605C3.2545 19.808 3.63036 20.0105 3.98007 20.0755M2.19652 6.33139L3.98007 20.0755M3.98007 20.0755C3.97991 20.0755 3.97977 20.0754 3.97965 20.0754L4.02573 19.8297L3.98007 20.0755ZM23.7735 19.0999L23.7731 19.1007C23.5643 19.57 23.1843 20.0288 22.7189 20.3959C22.2536 20.763 21.7186 21.026 21.2129 21.1198L21.2128 21.1199C21.1162 21.1378 18.4262 21.625 12.5078 21.625H12.4921C6.58941 21.625 3.89521 21.1403 3.78575 21.1205C3.28013 21.0262 2.74519 20.7631 2.27968 20.3959C1.81398 20.0286 1.43356 19.5695 1.22443 19.0999C1.19555 19.0348 0.250732 16.8708 0.250732 12.5C0.250732 8.12546 1.19716 5.9607 1.2245 5.89919C1.43364 5.42961 1.81399 4.97085 2.27961 4.60386C2.74527 4.23684 3.28042 3.97405 3.7862 3.88018L3.78665 3.88009C3.8821 3.8622 6.57433 3.375 12.4921 3.375C18.4134 3.375 21.1051 3.86008 21.2127 3.8795C21.7187 3.97386 22.2536 4.2368 22.719 4.60365C23.1845 4.97064 23.5647 5.42921 23.7739 5.89844C23.808 5.97615 24.75 8.14129 24.75 12.5C24.75 16.8747 23.8011 19.0383 23.7735 19.0999ZM22.8014 6.32899L22.801 6.32803L22.5734 18.5672L22.801 18.6706C22.8012 18.6701 22.8015 18.6695 22.8019 18.6686C22.8405 18.5804 23.6859 16.5345 23.6859 12.5C23.6859 8.42553 22.8237 6.37958 22.8014 6.32899ZM10.4457 16.8556L10.4447 16.8562C10.3598 16.9102 10.2614 16.9375 10.1625 16.9375C10.0741 16.9375 9.98642 16.9158 9.90664 16.8714L9.90588 16.8709C9.73625 16.7774 9.6312 16.5994 9.6312 16.4062V8.59375C9.6312 8.40063 9.73537 8.22354 9.90333 8.13029L9.90386 8.13C10.0728 8.03564 10.2795 8.04048 10.4413 8.14118L10.442 8.14157L16.7068 12.0134L16.7068 12.0135C16.8626 12.1097 16.958 12.2797 16.9585 12.4624C16.9591 12.6465 16.8652 12.8173 16.7109 12.9139L16.7106 12.9142L10.4457 16.8556ZM11.0759 9.78264L10.6945 9.54693V9.99531V14.9914V15.444L11.0776 15.203L15.0839 12.6827L15.4232 12.4692L15.0822 12.2584L11.0759 9.78264Z" fill="black" stroke="white" stroke-width="0.5"/>
  </g>
  <defs>
    <clipPath id="clip0_1_233">
      <rect width="25" height="25" fill="white"/>
    </clipPath>
  </defs>
</svg>